<svg preserveAspectRatio="none" width="100%" height="100%" overflow="visible" style="display: block;" viewBox="0 0 28 28" fill="none" xmlns="http://www.w3.org/2000/svg">
<g id="scholar-cap-filled-3-detailed 1" clip-path="url(#clip0_0_14)">
<path id="Vector" d="M14 3.5L0 10.5L14 17.5L28 10.5L14 3.5Z" fill="var(--fill-0, #910029)"/>
<path id="Vector_2" d="M5.83333 14.5833V19.8333C5.83333 22.4117 9.485 24.5 14 24.5C18.515 24.5 22.1667 22.4117 22.1667 19.8333V14.5833L14 18.6667L5.83333 14.5833Z" fill="var(--fill-0, #910029)"/>
<path id="Vector_3" d="M25.9583 11.6667H25.375C25.0528 11.6667 24.7917 11.9278 24.7917 12.25V19.8333C24.7917 20.1555 25.0528 20.4167 25.375 20.4167H25.9583C26.2805 20.4167 26.5417 20.1555 26.5417 19.8333V12.25C26.5417 11.9278 26.2805 11.6667 25.9583 11.6667Z" fill="var(--fill-0, #910029)"/>
<path id="Vector_4" d="M25.6667 24.7333C27.0843 24.7333 28.2334 23.5842 28.2334 22.1667C28.2334 20.7491 27.0843 19.6 25.6667 19.6C24.2492 19.6 23.1001 20.7491 23.1001 22.1667C23.1001 23.5842 24.2492 24.7333 25.6667 24.7333Z" fill="var(--fill-0, #910029)"/>
</g>
<defs>
<clipPath id="clip0_0_14">
<rect width="28" height="28" fill="white"/>
</clipPath>
</defs>
</svg>
