<svg preserveAspectRatio="none" width="100%" height="100%" overflow="visible" style="display: block;" viewBox="0 0 22 22" fill="none" xmlns="http://www.w3.org/2000/svg">
<g id="linkedin 1" clip-path="url(#clip0_0_19)">
<path id="Vector" d="M1.62305 0.458008H20.3701C21.0263 0.458008 21.542 0.975336 21.542 1.58496V20.415C21.542 21.0254 21.0265 21.542 20.3701 21.542H1.62305C0.968468 21.5418 0.458008 21.0278 0.458008 20.415V1.58496C0.458008 0.972965 0.968643 0.458202 1.62305 0.458008ZM2.80078 19.2061H6.98438V7.79199H2.80078V19.2061ZM14.833 7.52539C13.7025 7.52539 12.7982 7.92432 12.1592 8.46484V7.79199H8.11328V19.2061H12.2881V13.5527C12.2881 12.8765 12.3567 12.3065 12.5732 11.9141C12.6756 11.7286 12.809 11.5869 12.9873 11.4883C13.1682 11.3883 13.4224 11.3174 13.7871 11.3174C14.1319 11.3174 14.3508 11.3967 14.4961 11.498C14.6424 11.6002 14.7545 11.7522 14.8379 11.9629C15.0151 12.4106 15.0273 13.014 15.0273 13.6426V19.2061H19.2012V18.748L19.2021 12.9834C19.2021 11.5595 19.0538 10.1936 18.4141 9.17871C17.7437 8.11533 16.5962 7.52549 14.833 7.52539ZM5.35156 2.61816C4.89627 2.52741 4.42419 2.57371 3.99512 2.75098C3.56579 2.92844 3.19788 3.22919 2.93945 3.61523C2.68108 4.00121 2.54348 4.45545 2.54297 4.91992C2.54252 5.22871 2.60281 5.53491 2.7207 5.82031C2.83854 6.10549 3.01145 6.36468 3.22949 6.58301C3.44761 6.80134 3.70709 6.97461 3.99219 7.09277C4.27748 7.21094 4.58379 7.27163 4.89258 7.27148C5.35704 7.27142 5.81105 7.13397 6.19727 6.87598C6.5835 6.61796 6.88461 6.25134 7.0625 5.82227C7.24039 5.3931 7.28676 4.92052 7.19629 4.46484C7.1058 4.00926 6.88297 3.59033 6.55469 3.26172C6.22634 2.93306 5.80715 2.70907 5.35156 2.61816Z" fill="var(--fill-0, #910029)" stroke="var(--stroke-0, #910029)" stroke-width="0.916667"/>
</g>
<defs>
<clipPath id="clip0_0_19">
<rect width="22" height="22" fill="white"/>
</clipPath>
</defs>
</svg>
