<svg preserveAspectRatio="none" width="100%" height="100%" overflow="visible" style="display: block;" viewBox="0 0 29 24" fill="none" xmlns="http://www.w3.org/2000/svg">
<g id="megaphone-7-with-waves 1">
<path id="Vector" d="M1.90576 12.8478L14.9796 5.77149L16.8094 17.6312L2.21073 14.8244L1.90576 12.8478Z" fill="var(--fill-0, #910029)" stroke="var(--stroke-0, #910029)" stroke-width="1.6" stroke-linecap="round" stroke-linejoin="round"/>
<path id="Vector_2" d="M10.7348 17.0431C10.6401 17.4975 10.4568 17.9287 10.1954 18.3123C9.934 18.6958 9.59961 19.0241 9.21133 19.2784C8.82305 19.5327 8.38849 19.708 7.93245 19.7944C7.47641 19.8807 7.00783 19.8764 6.55346 19.7817C6.09909 19.6869 5.66782 19.5036 5.28429 19.2422C4.90076 18.9808 4.57248 18.6464 4.31818 18.2582C4.06388 17.8699 3.88854 17.4353 3.80219 16.9793C3.71583 16.5232 3.72015 16.0546 3.81489 15.6003" stroke="var(--stroke-0, #910029)" stroke-width="1.87979" stroke-linecap="round" stroke-linejoin="round"/>
<path id="Vector_3" d="M19 7.03231C19.7863 6.91099 20.5887 7.107 21.2305 7.57724C21.8723 8.04748 22.3011 8.75342 22.4224 9.53977C22.5437 10.3261 22.3477 11.1284 21.8774 11.7703C21.4072 12.4121 20.7013 12.8408 19.9149 12.9621" stroke="var(--stroke-0, #910029)" stroke-width="1.6" stroke-linecap="round" stroke-linejoin="round"/>
<path id="Vector_4" d="M21.5073 3.60995C22.7955 4.01121 23.9264 4.71626 24.7825 5.65182C25.6387 6.58737 26.1887 7.71927 26.3755 8.92983C26.5622 10.1404 26.379 11.3854 25.8446 12.5355C25.3103 13.6856 24.4445 14.6987 23.3372 15.4696" stroke="var(--stroke-0, #910029)" stroke-width="1.6" stroke-linecap="round" stroke-linejoin="round"/>
</g>
</svg>
