<svg preserveAspectRatio="none" width="100%" height="100%" overflow="visible" style="display: block;" viewBox="0 0 24.3042 24.3042" fill="none" xmlns="http://www.w3.org/2000/svg">
<g id="github 1" clip-path="url(#clip0_0_26)">
<path id="Vector" d="M12.1523 0.806621C18.5836 0.806753 23.7979 6.02183 23.7979 12.4531C23.7977 17.5769 20.4822 21.9323 15.8418 23.4707C15.7544 23.4852 15.7033 23.4829 15.6787 23.4775C15.6655 23.4746 15.6586 23.4709 15.6562 23.4697C15.6552 23.4692 15.6545 23.4689 15.6543 23.4687L15.6533 23.4678L15.6523 23.4658C15.6508 23.4634 15.6472 23.4592 15.6445 23.4521C15.6387 23.4366 15.6348 23.4139 15.6348 23.3887C15.6348 23.1934 15.6388 22.7722 15.6426 22.1904C15.6464 21.6107 15.6494 20.876 15.6494 20.0615C15.6494 19.3048 15.4896 18.6764 15.2393 18.1914C16.3633 17.9926 17.5082 17.6177 18.4346 16.8418C19.6244 15.8451 20.3739 14.2627 20.374 11.8183C20.374 10.4753 19.9307 9.34773 19.1914 8.44334C19.3628 7.8521 19.5584 6.65874 18.9727 5.15721L18.8848 4.9326L18.6553 4.85838L18.501 5.33982C18.6481 4.88051 18.6545 4.85947 18.6543 4.85838H18.6533L18.6514 4.8574C18.65 4.85697 18.648 4.85689 18.6465 4.85643C18.6435 4.85552 18.6402 4.85449 18.6367 4.8535C18.6294 4.85142 18.6207 4.849 18.6113 4.84666C18.5925 4.84196 18.5692 4.83693 18.542 4.83201C18.4875 4.82218 18.4161 4.8126 18.3281 4.80857C18.1516 4.80054 17.9095 4.81313 17.5986 4.87889C17.0109 5.00328 16.1825 5.31889 15.084 6.04002C14.132 5.79697 13.1337 5.67575 12.1387 5.6699H12.1328C11.1371 5.67577 10.1382 5.79662 9.18555 6.04002C8.08036 5.31907 7.24934 5.00319 6.66016 4.87889C6.34835 4.81312 6.10552 4.80054 5.92871 4.80857C5.84045 4.8126 5.7684 4.82216 5.71387 4.83201C5.68691 4.83689 5.66417 4.842 5.64551 4.84666C5.63611 4.84901 5.62741 4.85142 5.62012 4.8535C5.61661 4.8545 5.61337 4.85551 5.61035 4.85643C5.60879 4.8569 5.6069 4.85696 5.60547 4.8574L5.60352 4.85838H5.60254C5.60205 4.85856 5.6024 4.86185 5.75586 5.3408L5.60156 4.85838L5.37207 4.9326L5.28418 5.15721C4.70131 6.6513 4.89059 7.84391 5.0752 8.44822C4.33411 9.35206 3.89258 10.4781 3.89258 11.8183C3.89267 14.2569 4.64114 15.8401 5.82812 16.8398C6.75415 17.6197 7.89924 17.9986 9.02344 18.2002C8.89189 18.4562 8.78504 18.7502 8.71484 19.082C8.40751 19.1921 8.00217 19.2892 7.58594 19.2519C7.08275 19.2069 6.51956 18.9664 6.0625 18.1826C6.0605 18.1791 6.05846 18.1747 6.05566 18.1699C6.04842 18.1575 6.03795 18.1403 6.02539 18.1201C6.00033 18.0798 5.96441 18.0249 5.91797 17.9599C5.82519 17.8302 5.68705 17.6565 5.50391 17.4795C5.14111 17.1289 4.56984 16.7345 3.7998 16.6806L3.78516 16.6797H3.74707C3.73471 16.6798 3.71728 16.6799 3.69727 16.6806C3.65779 16.682 3.6031 16.6855 3.54102 16.6924C3.43618 16.7039 3.23356 16.7334 3.05859 16.833C2.96578 16.8858 2.83425 16.9843 2.75879 17.1562C2.6764 17.3442 2.69736 17.5346 2.76074 17.6865C2.86641 17.9394 3.11344 18.1507 3.39258 18.3418L3.42676 18.3652L3.45605 18.3789C3.45628 18.379 3.45932 18.3806 3.46484 18.3838C3.47598 18.3901 3.49772 18.4026 3.52734 18.4228C3.58644 18.4632 3.67858 18.534 3.78906 18.6445C3.98179 18.8373 4.23558 19.1572 4.46387 19.6601L4.55957 19.8877C4.56053 19.8905 4.56143 19.8934 4.5625 19.8965C4.5713 19.9214 4.58398 19.9549 4.60059 19.9951C4.63373 20.0753 4.68348 20.1841 4.75488 20.3096C4.89775 20.5604 5.12944 20.885 5.48633 21.1816C6.13562 21.7211 7.13846 22.1185 8.62207 21.9306C8.62724 22.6466 8.6328 23.1678 8.63281 23.3974C8.63281 23.4511 8.61455 23.4759 8.61133 23.4795C8.61078 23.48 8.60938 23.4818 8.60645 23.4834C8.60337 23.485 8.59598 23.4882 8.58301 23.4912C8.55892 23.4967 8.50944 23.4997 8.42578 23.4863C3.82176 21.9353 0.505965 17.5827 0.505859 12.4531C0.505859 6.02167 5.71803 0.806621 12.1523 0.806621Z" fill="var(--fill-0, #5D545D)" stroke="var(--stroke-0, #5D545D)" stroke-width="1.01267"/>
</g>
<defs>
<clipPath id="clip0_0_26">
<rect width="24.3042" height="24.3042" fill="white"/>
</clipPath>
</defs>
</svg>
