<svg preserveAspectRatio="none" width="100%" height="100%" overflow="visible" style="display: block;" viewBox="0 0 23 26" fill="none" xmlns="http://www.w3.org/2000/svg">
<g id="cv-filled-2-with-lines 1">
<path id="Vector" fill-rule="evenodd" clip-rule="evenodd" d="M4.22101 2C3.63196 2 3.06704 2.234 2.65052 2.65052C2.234 3.06704 2 3.63196 2 4.22101V21.9891C2 22.5781 2.234 23.1431 2.65052 23.5596C3.06704 23.9761 3.63196 24.2101 4.22101 24.2101H17.5471C18.1361 24.2101 18.701 23.9761 19.1176 23.5596C19.5341 23.1431 19.7681 22.5781 19.7681 21.9891V8.66303L13.105 2H4.22101ZM6.44202 8.94065H8.66303V10.6064H6.44202V8.94065ZM6.44202 13.3827H15.3261V15.0484H6.44202V13.3827ZM6.44202 17.8247H15.3261V19.4904H6.44202V17.8247Z" fill="var(--fill-0, #910029)"/>
</g>
</svg>
