<svg preserveAspectRatio="none" width="100%" height="100%" overflow="visible" style="display: block;" viewBox="0 0 26.6521 26.6521" fill="none" xmlns="http://www.w3.org/2000/svg">
<g id="email-filled-2-flap 1">
<path id="Vector" fill-rule="evenodd" clip-rule="evenodd" d="M2.22095 6.66301C2.22095 6.07396 2.45495 5.50904 2.87147 5.09252C3.28799 4.676 3.85291 4.442 4.44196 4.442H22.21C22.7991 4.442 23.364 4.676 23.7805 5.09252C24.197 5.50904 24.431 6.07396 24.431 6.66301V19.9891C24.431 20.5781 24.197 21.143 23.7805 21.5596C23.364 21.9761 22.7991 22.2101 22.21 22.2101H4.44196C3.85291 22.2101 3.28799 21.9761 2.87147 21.5596C2.45495 21.143 2.22095 20.5781 2.22095 19.9891V6.66301ZM4.88616 7.21826L13.326 13.1484L21.7658 7.21826H4.88616Z" fill="var(--fill-0, #910029)"/>
</g>
</svg>
