<svg preserveAspectRatio="none" width="100%" height="100%" overflow="visible" style="display: block;" viewBox="0 0 29.6111 31.093" fill="none" xmlns="http://www.w3.org/2000/svg">
<g id="jiangpai5">
<path id="Vector" d="M28.8109 26.7523L25.741 27.1537C25.3592 27.2036 24.9911 27.3284 24.6577 27.5209C24.3243 27.7134 24.0321 27.9698 23.7981 28.2755L21.9175 30.7325C21.8258 30.8525 21.7058 30.948 21.5683 31.0106C21.4307 31.0732 21.2799 31.1008 21.1291 31.0911C20.9783 31.0815 20.8322 31.0347 20.7038 30.955C20.5754 30.8754 20.4687 30.7653 20.393 30.6345L14.806 20.9575L23.9013 15.7069L29.488 25.3835C29.5636 25.5144 29.6057 25.6619 29.6107 25.8129C29.6156 25.9639 29.5832 26.1138 29.5163 26.2494C29.4495 26.3849 29.3502 26.5018 29.2273 26.5897C29.1044 26.6777 28.9618 26.734 28.8119 26.7536" fill="var(--fill-0, #F44336)"/>
<path id="Vector_2" d="M20.5268 17.6527L18.178 19.009L23.6448 28.4769L23.799 28.2754C24.033 27.9698 24.3251 27.7134 24.6584 27.5209C24.9918 27.3284 25.3598 27.2036 25.7415 27.1536L25.9933 27.1209L20.5268 17.6527Z" fill="var(--fill-0, #FFB871)"/>
<path id="Vector_3" d="M0.799232 26.7523L3.86921 27.1537C4.25094 27.2036 4.61906 27.3284 4.95247 27.521C5.28587 27.7135 5.578 27.9699 5.81211 28.2755L7.69459 30.7325C7.78636 30.8525 7.90634 30.9481 8.04388 31.0106C8.18142 31.0732 8.33227 31.1008 8.48306 31.0912C8.63385 31.0815 8.77991 31.0347 8.90831 30.9551C9.03671 30.8754 9.14347 30.7653 9.21912 30.6345L14.8061 20.9576L5.70988 15.7056L0.123184 25.3822C0.047586 25.5131 0.00544279 25.6606 0.000492881 25.8116C-0.00445703 25.9626 0.02794 26.1125 0.0948089 26.2481C0.161678 26.3836 0.260952 26.5005 0.383831 26.5885C0.50671 26.6764 0.649395 26.7327 0.799232 26.7523Z" fill="var(--fill-0, #F44336)"/>
<path id="Vector_4" d="M9.08235 17.6527L11.4309 19.009L5.96437 28.477L5.81021 28.2755C5.57614 27.9699 5.28406 27.7135 4.95072 27.5209C4.61737 27.3284 4.24932 27.2036 3.86764 27.1536L3.61583 27.1209L9.08235 17.6527Z" fill="var(--fill-0, #FFB871)"/>
<path id="Vector_5" d="M12.1112 1.77735L13.7337 0.394559C14.0326 0.13988 14.4124 0 14.8051 0C15.1977 0 15.5776 0.13988 15.8764 0.394559L17.499 1.77735C18.4592 2.59558 19.653 3.0901 20.9105 3.19052L23.0357 3.36002C23.4272 3.39125 23.7947 3.56094 24.0723 3.83866C24.35 4.11637 24.5196 4.48394 24.5508 4.87541L24.7203 7.00088C24.8206 8.25824 25.3151 9.45189 26.1334 10.4118L27.5162 12.035C27.7709 12.3338 27.9108 12.7136 27.9108 13.1062C27.9108 13.4988 27.7709 13.8786 27.5162 14.1774L26.1334 15.8003C25.3149 16.7607 24.8204 17.9549 24.7203 19.2128L24.5508 21.3383C24.5195 21.7297 24.3499 22.0971 24.0722 22.3747C23.7946 22.6523 23.4271 22.8219 23.0357 22.853L20.9105 23.0229C19.653 23.1232 18.4592 23.6176 17.499 24.4357L15.8755 25.8172C15.5765 26.0718 15.1967 26.2116 14.8041 26.2116C14.4114 26.2116 14.0316 26.0718 13.7327 25.8172L12.1102 24.4341C11.1499 23.616 9.95608 23.1216 8.69859 23.0212L6.57345 22.8514C6.18205 22.8202 5.81456 22.6506 5.53686 22.3731C5.25916 22.0955 5.08942 21.7281 5.05806 21.3367L4.88953 19.2128C4.78922 17.9554 4.29481 16.7617 3.47669 15.8016L2.09325 14.1771C1.8384 13.8784 1.69842 13.4986 1.69842 13.1059C1.69842 12.7132 1.8384 12.3334 2.09325 12.0347L3.47604 10.4115C4.29422 9.45153 4.78863 8.25789 4.88888 7.00055L5.05904 4.87541C5.09039 4.48399 5.26012 4.11654 5.53781 3.8389C5.81551 3.56127 6.183 3.39162 6.57443 3.36035L8.69957 3.19085C9.9571 3.09036 11.1509 2.59585 12.1112 1.77768" fill="var(--fill-0, #FFC445)"/>
<path id="Vector_6" d="M14.4067 6.00791L8.5307 15.5189H20.2819L14.4067 6.00791Z" fill="var(--fill-0, #FFEF66)"/>
<path id="Vector_7" d="M14.3227 18.784L8.44711 9.27345H20.198L14.3227 18.784Z" fill="var(--fill-0, #FFEF66)"/>
</g>
</svg>
